<?xml version="1.0" encoding="UTF-8"?>
<svg xmlns="http://www.w3.org/2000/svg" width="1600" height="637" viewBox="0 0 1600 637">
  <defs>
    <linearGradient id="1n3b15v38a" x1=".462" y1="-.107" x2=".462" y2=".776" gradientUnits="objectBoundingBox">
      <stop offset="0" stop-color="#efdccb"></stop>
      <stop offset="1" stop-color="#fff"></stop>
    </linearGradient>
    <clipPath id="u9dt2asv7b">
      <path data-name="Rectangle 8888" transform="translate(0 .285)" style="fill:url(#1n3b15v38a);opacity:0" d="M0 0h1600v637H0z"></path>
    </clipPath>
  </defs>
  <g data-name="Group 36185">
    <g data-name="Mask Group 10" transform="translate(0 -.285)" style="clip-path:url(#u9dt2asv7b)">
      <path data-name="Rectangle 7961" transform="translate(0 .285)" style="fill:url(#1n3b15v38a)" d="M0 0h1658v662H0z"></path>
      <g data-name="Group 31482" style="opacity:.486">
        <path data-name="Union 1" d="M1722.48 375.291q-1.772-.068-3.52-.213c-3.335 15.5-19.408 27.3-38.843 27.378-13.88.058-26.116-5.883-33.266-14.915a38.187 38.187 0 0 1-19.6 5.367c-11.6.047-21.861-4.813-28.012-12.253a65.656 65.656 0 0 1-11.692 6.854c-7.065 8.958-19.137 14.892-32.9 14.947-13.88.058-26.116-5.883-33.266-14.915a38.182 38.182 0 0 1-19.6 5.367 37.3 37.3 0 0 1-23.974-8.225 43.958 43.958 0 0 1-6.559-2.271 71.609 71.609 0 0 1-39.358 11.6c-17.02.069-32.507-5.461-44.02-14.516a45.8 45.8 0 0 1-46.573.621c-17.556-2.095-32.7-10.484-42.112-22.368a58.557 58.557 0 0 1-30.065 8.233c-17.8.072-33.537-7.382-42.975-18.8-17.159 12.657-39.611 20.388-64.245 20.489a116.973 116.973 0 0 1-17.427-1.226c-11.2 9.341-26.543 14.874-42.838 14.874a72.28 72.28 0 0 1-12.989-1.178 63.509 63.509 0 0 1-32.782-16.3 113.646 113.646 0 0 1-71.442 9.975c-2.274-.416-4.506-.9-6.7-1.444l-2.2.393c-7.274 6.009-17.888 8.936-28.62 7.02l-5.358-.956-5.359.956c-10.731 1.915-21.346-1.011-28.62-7.02l-2.2-.393c-2.2.542-4.43 1.028-6.7 1.444a113.643 113.643 0 0 1-71.443-9.975 63.506 63.506 0 0 1-32.781 16.3c-29.083 5.314-57.833-7.807-68.963-30.042q-1.772-.068-3.521-.213c-3.334 15.5-19.407 27.3-38.842 27.378-13.881.058-26.117-5.883-33.266-14.915a38.187 38.187 0 0 1-19.6 5.367c-11.6.047-21.861-4.813-28.012-12.253a65.635 65.635 0 0 1-11.693 6.854c-7.065 8.958-19.136 14.892-32.9 14.947-13.881.058-26.116-5.883-33.266-14.915a38.182 38.182 0 0 1-19.6 5.367 37.307 37.307 0 0 1-23.974-8.225 43.946 43.946 0 0 1-6.558-2.272 71.607 71.607 0 0 1-39.358 11.6c-17.02.069-32.508-5.461-44.02-14.516a45.8 45.8 0 0 1-46.573.621c-17.557-2.095-32.7-10.484-42.112-22.368a58.557 58.557 0 0 1-30.065 8.233c-17.8.072-33.538-7.382-42.976-18.8-17.159 12.657-39.609 20.388-64.244 20.489-26.11.106-49.87-8.378-67.532-22.269a68.392 68.392 0 0 1-36.167 10.243C27.568 330.6.164 307.81 0 279.565c-.132-23.193 18.142-42.854 43.307-49.223l-27.113-4.708a31.047 31.047 0 0 1-3.041-22.443c4.88-19.814 27.975-32.505 51.5-28.421a46.449 46.449 0 0 1 21.862 9.87 39.293 39.293 0 0 1 12.909-11.888c-16.166-5.937-27.462-19.484-27.462-35.249 0-21.237 20.505-38.455 45.8-38.455a53.835 53.835 0 0 1 13.81 1.788c3.134-24.982 28.294-44.453 58.877-44.453a68.81 68.81 0 0 1 23.288 4c-.081-1.137-.206-2.267-.206-3.423C213.529 25.5 243.9 0 281.374 0c30.242 0 55.84 16.624 64.6 39.576a53.354 53.354 0 0 1 16.305-2.555c19.549 0 36.19 10.3 42.763 24.78a52.232 52.232 0 0 1 23.349-5.417c25.294 0 45.8 17.217 45.8 38.455a33.033 33.033 0 0 1-3.379 14.463A64.913 64.913 0 0 1 489.2 118.3c5.341-10.748 17.966-18.306 32.7-18.306a40.907 40.907 0 0 1 13.835 2.357c1.575-22.57 23.877-40.47 51.152-40.47 18.241 0 34.267 8.019 43.35 20.11A86.258 86.258 0 0 1 661.6 76.2c23.7 0 44.817 9.257 58.507 23.7a69.047 69.047 0 0 1 23.284-7.066 32.237 32.237 0 0 1 .275-14.71c5.25-20.737 29.527-33.974 54.223-29.566a48.893 48.893 0 0 1 21.458 9.356c10-12.988 28.791-20.147 47.878-16.742a50.621 50.621 0 0 1 15.289 5.335C894.5 28.9 917.066 17.771 941.548 17.869c24.482-.1 47.044 11.031 59.036 28.637a50.612 50.612 0 0 1 15.289-5.335c19.086-3.406 37.882 3.753 47.878 16.741a48.908 48.908 0 0 1 21.457-9.356c24.7-4.407 48.974 8.83 54.223 29.566a32.223 32.223 0 0 1 .275 14.71 71.2 71.2 0 0 1 8.173 1.474 65.707 65.707 0 0 1 39.567-12.733 68.81 68.81 0 0 1 23.287 4c-.08-1.138-.206-2.267-.206-3.422 0-31.46 30.375-56.966 67.846-56.966 30.241 0 55.839 16.624 64.6 39.576a53.355 53.355 0 0 1 16.3-2.555c19.549 0 36.191 10.3 42.763 24.78a52.232 52.232 0 0 1 23.349-5.417 54.1 54.1 0 0 1 12.043 1.343 91.093 91.093 0 0 1 38.374-16.394c32.676-5.971 65.051 4.746 84.522 25.351a59.01 59.01 0 0 1 23.557-4.808c18.24 0 34.267 8.019 43.35 20.11a86.253 86.253 0 0 1 31.361-5.786c23.7 0 44.817 9.257 58.508 23.7a69.035 69.035 0 0 1 23.283-7.066 32.239 32.239 0 0 1 .276-14.71c5.249-20.737 29.526-33.974 54.223-29.566a48.888 48.888 0 0 1 21.457 9.356c10-12.988 28.792-20.147 47.878-16.742a50.61 50.61 0 0 1 15.289 5.335c11.992-17.606 34.555-28.735 59.036-28.637 24.482-.1 47.044 11.031 59.036 28.637a50.615 50.615 0 0 1 15.29-5.335c19.086-3.406 37.882 3.753 47.878 16.741a48.909 48.909 0 0 1 21.458-9.356c24.7-4.407 48.974 8.83 54.223 29.566a32.235 32.235 0 0 1 .276 14.71c24.235 2.927 44.923 17.958 50.78 39.048a59.238 59.238 0 0 1 7.1-1.721c17.81-3.179 35.438 1.859 47.3 12.083a81.382 81.382 0 0 1 29.191-11.116c27.375-4.886 54.414 3.519 71.639 20.011a83.03 83.03 0 0 1 32.187-13.043 90.682 90.682 0 0 1 31.159-.256c-1.015-33.482 26.327-63.929 66.743-71.313 45.765-8.363 90.939 16.01 100.9 54.435.269 1.041.5 2.08.71 3.118.991-.236 1.966-.493 2.986-.679 21.6-3.947 42.976 4.636 53.38 19.951 9.314-9.707 22.541-16.863 38.21-19.585 35.887-6.231 71.008 13.149 78.431 43.282 18.773-3.26 37.223 4.3 46.16 17.6a46.435 46.435 0 0 1 21.863-9.871c23.521-4.084 46.617 8.607 51.5 28.421a31.047 31.047 0 0 1-3.039 22.444l-251.815 43.729c-.4-.109-.795-.226-1.191-.345a44.325 44.325 0 0 1-18.2 7.649 48.889 48.889 0 0 1-6.078.678c1.927 16.564-11.157 32.086-31 35.712-13.54 2.473-26.953-1.2-36.167-8.767a35.5 35.5 0 0 1-17.809 8.655c-11.316 2.068-22.535-.889-30.38-7.081-8.881 10.006-21.924 17.476-37.587 20.338a74.079 74.079 0 0 1-46.569-6.5 41.4 41.4 0 0 1-21.369 10.628c-19.007 3.473-37.789-5.143-45-19.709l-162.38 28.98q-.169.759-.365 1.519c-6.192 23.892-31.373 40.206-59.352 40.206a72.286 72.286 0 0 1-12.988-1.178 63.51 63.51 0 0 1-32.782-16.3A113.646 113.646 0 0 1 1981.43 399c-2.274-.415-4.506-.9-6.7-1.444l-2.2.393c-7.273 6.009-17.888 8.935-28.62 7.02l-5.358-.956-5.358.956c-10.732 1.915-21.347-1.011-28.62-7.02l-2.2-.393c-2.2.542-4.43 1.028-6.7 1.444a113.639 113.639 0 0 1-71.441-9.975 63.51 63.51 0 0 1-32.782 16.3 72.277 72.277 0 0 1-12.99 1.178c-24.321.01-46.518-12.303-55.981-31.212z" transform="translate(-433.28 423.115)" style="stroke:transparent;stroke-miterlimit:10;fill:url(#1n3b15v38a)"></path>
      </g>
      <g data-name="Group 26284">
        <path data-name="Union 1" d="M1722.48 375.291q-1.772-.068-3.52-.213c-3.335 15.5-19.408 27.3-38.843 27.378-13.88.058-26.116-5.883-33.266-14.915a38.187 38.187 0 0 1-19.6 5.367c-11.6.047-21.861-4.813-28.012-12.253a65.656 65.656 0 0 1-11.692 6.854c-7.065 8.958-19.137 14.892-32.9 14.947-13.88.058-26.116-5.883-33.266-14.915a38.182 38.182 0 0 1-19.6 5.367 37.3 37.3 0 0 1-23.974-8.225 43.958 43.958 0 0 1-6.559-2.271 71.609 71.609 0 0 1-39.358 11.6c-17.02.069-32.507-5.461-44.02-14.516a45.8 45.8 0 0 1-46.573.621c-17.556-2.095-32.7-10.484-42.112-22.368a58.557 58.557 0 0 1-30.065 8.233c-17.8.072-33.537-7.382-42.975-18.8-17.159 12.657-39.611 20.388-64.245 20.489a116.973 116.973 0 0 1-17.427-1.226c-11.2 9.341-26.543 14.874-42.838 14.874a72.28 72.28 0 0 1-12.989-1.178 63.509 63.509 0 0 1-32.782-16.3 113.646 113.646 0 0 1-71.442 9.975c-2.274-.416-4.506-.9-6.7-1.444l-2.2.393c-7.274 6.009-17.888 8.936-28.62 7.02l-5.358-.956-5.359.956c-10.731 1.915-21.346-1.011-28.62-7.02l-2.2-.393c-2.2.542-4.43 1.028-6.7 1.444a113.643 113.643 0 0 1-71.443-9.975 63.506 63.506 0 0 1-32.781 16.3c-29.083 5.314-57.833-7.807-68.963-30.042q-1.772-.068-3.521-.213c-3.334 15.5-19.407 27.3-38.842 27.378-13.881.058-26.117-5.883-33.266-14.915a38.187 38.187 0 0 1-19.6 5.367c-11.6.047-21.861-4.813-28.012-12.253a65.635 65.635 0 0 1-11.693 6.854c-7.065 8.958-19.136 14.892-32.9 14.947-13.881.058-26.116-5.883-33.266-14.915a38.182 38.182 0 0 1-19.6 5.367 37.307 37.307 0 0 1-23.974-8.225 43.946 43.946 0 0 1-6.558-2.272 71.607 71.607 0 0 1-39.358 11.6c-17.02.069-32.508-5.461-44.02-14.516a45.8 45.8 0 0 1-46.573.621c-17.557-2.095-32.7-10.484-42.112-22.368a58.557 58.557 0 0 1-30.065 8.233c-17.8.072-33.538-7.382-42.976-18.8-17.159 12.657-39.609 20.388-64.244 20.489-26.11.106-49.87-8.378-67.532-22.269a68.392 68.392 0 0 1-36.167 10.243C27.568 330.6.164 307.81 0 279.565c-.132-23.193 18.142-42.854 43.307-49.223l-27.113-4.708a31.047 31.047 0 0 1-3.041-22.443c4.88-19.814 27.975-32.505 51.5-28.421a46.449 46.449 0 0 1 21.862 9.87 39.293 39.293 0 0 1 12.909-11.888c-16.166-5.937-27.462-19.484-27.462-35.249 0-21.237 20.505-38.455 45.8-38.455a53.835 53.835 0 0 1 13.81 1.788c3.134-24.982 28.294-44.453 58.877-44.453a68.81 68.81 0 0 1 23.288 4c-.081-1.137-.206-2.267-.206-3.423C213.529 25.5 243.9 0 281.374 0c30.242 0 55.84 16.624 64.6 39.576a53.354 53.354 0 0 1 16.305-2.555c19.549 0 36.19 10.3 42.763 24.78a52.232 52.232 0 0 1 23.349-5.417c25.294 0 45.8 17.217 45.8 38.455a33.033 33.033 0 0 1-3.379 14.463A64.913 64.913 0 0 1 489.2 118.3c5.341-10.748 17.966-18.306 32.7-18.306a40.907 40.907 0 0 1 13.835 2.357c1.575-22.57 23.877-40.47 51.152-40.47 18.241 0 34.267 8.019 43.35 20.11A86.258 86.258 0 0 1 661.6 76.2c23.7 0 44.817 9.257 58.507 23.7a69.047 69.047 0 0 1 23.284-7.066 32.237 32.237 0 0 1 .275-14.71c5.25-20.737 29.527-33.974 54.223-29.566a48.893 48.893 0 0 1 21.458 9.356c10-12.988 28.791-20.147 47.878-16.742a50.621 50.621 0 0 1 15.289 5.335C894.5 28.9 917.066 17.771 941.548 17.869c24.482-.1 47.044 11.031 59.036 28.637a50.612 50.612 0 0 1 15.289-5.335c19.086-3.406 37.882 3.753 47.878 16.741a48.908 48.908 0 0 1 21.457-9.356c24.7-4.407 48.974 8.83 54.223 29.566a32.223 32.223 0 0 1 .275 14.71 71.2 71.2 0 0 1 8.173 1.474 65.707 65.707 0 0 1 39.567-12.733 68.81 68.81 0 0 1 23.287 4c-.08-1.138-.206-2.267-.206-3.422 0-31.46 30.375-56.966 67.846-56.966 30.241 0 55.839 16.624 64.6 39.576a53.355 53.355 0 0 1 16.3-2.555c19.549 0 36.191 10.3 42.763 24.78a52.232 52.232 0 0 1 23.349-5.417 54.1 54.1 0 0 1 12.043 1.343 91.093 91.093 0 0 1 38.374-16.394c32.676-5.971 65.051 4.746 84.522 25.351a59.01 59.01 0 0 1 23.557-4.808c18.24 0 34.267 8.019 43.35 20.11a86.253 86.253 0 0 1 31.361-5.786c23.7 0 44.817 9.257 58.508 23.7a69.035 69.035 0 0 1 23.283-7.066 32.239 32.239 0 0 1 .276-14.71c5.249-20.737 29.526-33.974 54.223-29.566a48.888 48.888 0 0 1 21.457 9.356c10-12.988 28.792-20.147 47.878-16.742a50.61 50.61 0 0 1 15.289 5.335c11.992-17.606 34.555-28.735 59.036-28.637 24.482-.1 47.044 11.031 59.036 28.637a50.615 50.615 0 0 1 15.29-5.335c19.086-3.406 37.882 3.753 47.878 16.741a48.909 48.909 0 0 1 21.458-9.356c24.7-4.407 48.974 8.83 54.223 29.566a32.235 32.235 0 0 1 .276 14.71c24.235 2.927 44.923 17.958 50.78 39.048a59.238 59.238 0 0 1 7.1-1.721c17.81-3.179 35.438 1.859 47.3 12.083a81.382 81.382 0 0 1 29.191-11.116c27.375-4.886 54.414 3.519 71.639 20.011a83.03 83.03 0 0 1 32.187-13.043 90.682 90.682 0 0 1 31.159-.256c-1.015-33.482 26.327-63.929 66.743-71.313 45.765-8.363 90.939 16.01 100.9 54.435.269 1.041.5 2.08.71 3.118.991-.236 1.966-.493 2.986-.679 21.6-3.947 42.976 4.636 53.38 19.951 9.314-9.707 22.541-16.863 38.21-19.585 35.887-6.231 71.008 13.149 78.431 43.282 18.773-3.26 37.223 4.3 46.16 17.6a46.435 46.435 0 0 1 21.863-9.871c23.521-4.084 46.617 8.607 51.5 28.421a31.047 31.047 0 0 1-3.039 22.444l-251.815 43.729c-.4-.109-.795-.226-1.191-.345a44.325 44.325 0 0 1-18.2 7.649 48.889 48.889 0 0 1-6.078.678c1.927 16.564-11.157 32.086-31 35.712-13.54 2.473-26.953-1.2-36.167-8.767a35.5 35.5 0 0 1-17.809 8.655c-11.316 2.068-22.535-.889-30.38-7.081-8.881 10.006-21.924 17.476-37.587 20.338a74.079 74.079 0 0 1-46.569-6.5 41.4 41.4 0 0 1-21.369 10.628c-19.007 3.473-37.789-5.143-45-19.709l-162.38 28.98q-.169.759-.365 1.519c-6.192 23.892-31.373 40.206-59.352 40.206a72.286 72.286 0 0 1-12.988-1.178 63.51 63.51 0 0 1-32.782-16.3A113.646 113.646 0 0 1 1981.43 399c-2.274-.415-4.506-.9-6.7-1.444l-2.2.393c-7.273 6.009-17.888 8.935-28.62 7.02l-5.358-.956-5.358.956c-10.732 1.915-21.347-1.011-28.62-7.02l-2.2-.393c-2.2.542-4.43 1.028-6.7 1.444a113.639 113.639 0 0 1-71.441-9.975 63.51 63.51 0 0 1-32.782 16.3 72.277 72.277 0 0 1-12.99 1.178c-24.321.01-46.518-12.303-55.981-31.212z" transform="translate(-232.28 459.219)" style="stroke:transparent;stroke-miterlimit:10;fill:url(#1n3b15v38a)"></path>
      </g>
    </g>
  </g>
</svg>
